<svg xmlns="http://www.w3.org/2000/svg" viewBox="0 0 400 480" width="400" height="480">
  <path d="M200 100 A150 150 0 0 0 200 400" stroke="black" stroke-width="10" fill="white" />
  <path d="M200 100 A150 150 0 0 1 200 400" stroke="black" stroke-width="10" fill="black" />
  <path d="M200 100 A75 75 0 0 1 200 250" stroke="black" stroke-width="10" fill="white" />
  <path d="M200 250 A75 75 0 0 0 200 400" stroke="black" stroke-width="10" fill="black" />
  <path d="M200 150 A20 20 0 0 0 200 200" stroke="black" stroke-width="10" fill="black" />
  <path d="M200 150 A20 20 0 0 1 200 200" stroke="black" stroke-width="10" fill="black" />
  <path d="M200 300 A20 20 0 0 0 200 350" stroke="white" stroke-width="10" fill="white" />
  <path d="M200 300 A20 20 0 0 1 200 350" stroke="white" stroke-width="10" fill="white" />
</svg>
